<svg width="323" height="422" viewBox="0 0 323 422" fill="none" xmlns="http://www.w3.org/2000/svg">
<g clip-path="url(#clip0_4428_173314)">
<path d="M323 419.894V421.634H319.966V424.699H318.164V421.634H315.115V419.894H318.164V416.814H319.966V419.894H323Z" fill="#E6E6E6"/>
<path d="M276.802 419.894V421.634H273.769V424.699H271.967V421.634H268.918V419.894H271.967V416.814H273.769V419.894H276.802Z" fill="#E6E6E6"/>
<path d="M230.605 419.894V421.634H227.571V424.699H225.77V421.634H222.721V419.894H225.77V416.814H227.571V419.894H230.605Z" fill="#E6E6E6"/>
<path d="M184.408 419.894V421.634H181.374V424.699H179.572V421.634H176.523V419.894H179.572V416.814H181.374V419.894H184.408Z" fill="#E6E6E6"/>
<path d="M138.211 419.894V421.634H135.177V424.699H133.375V421.634H130.326V419.894H133.375V416.814H135.177V419.894H138.211Z" fill="#E6E6E6"/>
<path d="M92.0132 419.894V421.634H88.9797V424.699H87.1779V421.634H84.1289V419.894H87.1779V416.814H88.9797V419.894H92.0132Z" fill="#E6E6E6"/>
<path d="M45.816 419.894V421.634H42.7824V424.699H40.9806V421.634H37.9316V419.894H40.9806V416.814H42.7824V419.894H45.816Z" fill="#E6E6E6"/>
<path d="M323 373.697V375.437H319.966V378.501H318.164V375.437H315.115V373.697H318.164V370.617H319.966V373.697H323Z" fill="#E6E6E6"/>
<path d="M276.802 373.697V375.437H273.769V378.501H271.967V375.437H268.918V373.697H271.967V370.617H273.769V373.697H276.802Z" fill="#E6E6E6"/>
<path d="M230.605 373.697V375.437H227.571V378.501H225.77V375.437H222.721V373.697H225.77V370.617H227.571V373.697H230.605Z" fill="#E6E6E6"/>
<path d="M184.408 373.697V375.437H181.374V378.501H179.572V375.437H176.523V373.697H179.572V370.617H181.374V373.697H184.408Z" fill="#E6E6E6"/>
<path d="M138.211 373.697V375.437H135.177V378.501H133.375V375.437H130.326V373.697H133.375V370.617H135.177V373.697H138.211Z" fill="#E6E6E6"/>
<path d="M92.0132 373.697V375.437H88.9797V378.501H87.1779V375.437H84.1289V373.697H87.1779V370.617H88.9797V373.697H92.0132Z" fill="#E6E6E6"/>
<path d="M45.816 373.697V375.437H42.7824V378.501H40.9806V375.437H37.9316V373.697H40.9806V370.617H42.7824V373.697H45.816Z" fill="#E6E6E6"/>
<path d="M323 327.499V329.239H319.966V332.304H318.164V329.239H315.115V327.499H318.164V324.419H319.966V327.499H323Z" fill="#E6E6E6"/>
<path d="M276.802 327.499V329.239H273.769V332.304H271.967V329.239H268.918V327.499H271.967V324.419H273.769V327.499H276.802Z" fill="#E6E6E6"/>
<path d="M230.605 327.499V329.239H227.571V332.304H225.77V329.239H222.721V327.499H225.77V324.419H227.571V327.499H230.605Z" fill="#E6E6E6"/>
<path d="M184.408 327.499V329.239H181.374V332.304H179.572V329.239H176.523V327.499H179.572V324.419H181.374V327.499H184.408Z" fill="#E6E6E6"/>
<path d="M138.211 327.499V329.239H135.177V332.304H133.375V329.239H130.326V327.499H133.375V324.419H135.177V327.499H138.211Z" fill="#E6E6E6"/>
<path d="M92.0132 327.499V329.239H88.9797V332.304H87.1779V329.239H84.1289V327.499H87.1779V324.419H88.9797V327.499H92.0132Z" fill="#E6E6E6"/>
<path d="M45.816 327.499V329.239H42.7824V332.304H40.9806V329.239H37.9316V327.499H40.9806V324.419H42.7824V327.499H45.816Z" fill="#E6E6E6"/>
<path d="M323 281.302V283.042H319.966V286.106H318.164V283.042H315.115V281.302H318.164V278.222H319.966V281.302H323Z" fill="#E6E6E6"/>
<path d="M276.802 281.302V283.042H273.769V286.106H271.967V283.042H268.918V281.302H271.967V278.222H273.769V281.302H276.802Z" fill="#E6E6E6"/>
<path d="M230.605 281.302V283.042H227.571V286.106H225.77V283.042H222.721V281.302H225.77V278.222H227.571V281.302H230.605Z" fill="#E6E6E6"/>
<path d="M184.408 281.302V283.042H181.374V286.106H179.572V283.042H176.523V281.302H179.572V278.222H181.374V281.302H184.408Z" fill="#E6E6E6"/>
<path d="M138.211 281.302V283.042H135.177V286.106H133.375V283.042H130.326V281.302H133.375V278.222H135.177V281.302H138.211Z" fill="#E6E6E6"/>
<path d="M92.0132 281.302V283.042H88.9797V286.106H87.1779V283.042H84.1289V281.302H87.1779V278.222H88.9797V281.302H92.0132Z" fill="#E6E6E6"/>
<path d="M45.816 281.302V283.042H42.7824V286.106H40.9806V283.042H37.9316V281.302H40.9806V278.222H42.7824V281.302H45.816Z" fill="#E6E6E6"/>
<path d="M323 235.105V236.845H319.966V239.909H318.164V236.845H315.115V235.105H318.164V232.025H319.966V235.105H323Z" fill="#E6E6E6"/>
<path d="M276.802 235.105V236.845H273.769V239.909H271.967V236.845H268.918V235.105H271.967V232.025H273.769V235.105H276.802Z" fill="#E6E6E6"/>
<path d="M230.605 235.105V236.845H227.571V239.909H225.77V236.845H222.721V235.105H225.77V232.025H227.571V235.105H230.605Z" fill="#E6E6E6"/>
<path d="M184.408 235.105V236.845H181.374V239.909H179.572V236.845H176.523V235.105H179.572V232.025H181.374V235.105H184.408Z" fill="#E6E6E6"/>
<path d="M138.211 235.105V236.845H135.177V239.909H133.375V236.845H130.326V235.105H133.375V232.025H135.177V235.105H138.211Z" fill="#E6E6E6"/>
<path d="M92.0132 235.105V236.845H88.9797V239.909H87.1779V236.845H84.1289V235.105H87.1779V232.025H88.9797V235.105H92.0132Z" fill="#E6E6E6"/>
<path d="M45.816 235.105V236.845H42.7824V239.909H40.9806V236.845H37.9316V235.105H40.9806V232.025H42.7824V235.105H45.816Z" fill="#E6E6E6"/>
<path d="M323 188.907V190.648H319.966V193.712H318.164V190.648H315.115V188.907H318.164V185.828H319.966V188.907H323Z" fill="#E6E6E6"/>
<path d="M276.802 188.907V190.648H273.769V193.712H271.967V190.648H268.918V188.907H271.967V185.828H273.769V188.907H276.802Z" fill="#E6E6E6"/>
<path d="M230.605 188.907V190.648H227.571V193.712H225.77V190.648H222.721V188.907H225.77V185.828H227.571V188.907H230.605Z" fill="#E6E6E6"/>
<path d="M184.408 188.907V190.648H181.374V193.712H179.572V190.648H176.523V188.907H179.572V185.828H181.374V188.907H184.408Z" fill="#E6E6E6"/>
<path d="M138.211 188.907V190.648H135.177V193.712H133.375V190.648H130.326V188.907H133.375V185.828H135.177V188.907H138.211Z" fill="#E6E6E6"/>
<path d="M92.0132 188.907V190.648H88.9797V193.712H87.1779V190.648H84.1289V188.907H87.1779V185.828H88.9797V188.907H92.0132Z" fill="#E6E6E6"/>
<path d="M45.816 188.907V190.648H42.7824V193.712H40.9806V190.648H37.9316V188.907H40.9806V185.828H42.7824V188.907H45.816Z" fill="#E6E6E6"/>
<path d="M323 142.71V144.45H319.966V147.515H318.164V144.45H315.115V142.71H318.164V139.63H319.966V142.71H323Z" fill="#E6E6E6"/>
<path d="M276.802 142.71V144.45H273.769V147.515H271.967V144.45H268.918V142.71H271.967V139.63H273.769V142.71H276.802Z" fill="#E6E6E6"/>
<path d="M230.605 142.71V144.45H227.571V147.515H225.77V144.45H222.721V142.71H225.77V139.63H227.571V142.71H230.605Z" fill="#E6E6E6"/>
<path d="M184.408 142.71V144.45H181.374V147.515H179.572V144.45H176.523V142.71H179.572V139.63H181.374V142.71H184.408Z" fill="#E6E6E6"/>
<path d="M138.211 142.71V144.45H135.177V147.515H133.375V144.45H130.326V142.71H133.375V139.63H135.177V142.71H138.211Z" fill="#E6E6E6"/>
<path d="M92.0132 142.71V144.45H88.9797V147.515H87.1779V144.45H84.1289V142.71H87.1779V139.63H88.9797V142.71H92.0132Z" fill="#E6E6E6"/>
<path d="M45.816 142.71V144.45H42.7824V147.515H40.9806V144.45H37.9316V142.71H40.9806V139.63H42.7824V142.71H45.816Z" fill="#E6E6E6"/>
<path d="M323 96.5129V98.253H319.966V101.317H318.164V98.253H315.115V96.5129H318.164V93.4331H319.966V96.5129H323Z" fill="#E6E6E6"/>
<path d="M276.802 96.5129V98.253H273.769V101.317H271.967V98.253H268.918V96.5129H271.967V93.4331H273.769V96.5129H276.802Z" fill="#E6E6E6"/>
<path d="M230.605 96.5129V98.253H227.571V101.317H225.77V98.253H222.721V96.5129H225.77V93.4331H227.571V96.5129H230.605Z" fill="#E6E6E6"/>
<path d="M184.408 96.5129V98.253H181.374V101.317H179.572V98.253H176.523V96.5129H179.572V93.4331H181.374V96.5129H184.408Z" fill="#E6E6E6"/>
<path d="M138.211 96.5129V98.253H135.177V101.317H133.375V98.253H130.326V96.5129H133.375V93.4331H135.177V96.5129H138.211Z" fill="#E6E6E6"/>
<path d="M92.0132 96.5129V98.253H88.9797V101.317H87.1779V98.253H84.1289V96.5129H87.1779V93.4331H88.9797V96.5129H92.0132Z" fill="#E6E6E6"/>
<path d="M45.816 96.5129V98.253H42.7824V101.317H40.9806V98.253H37.9316V96.5129H40.9806V93.4331H42.7824V96.5129H45.816Z" fill="#E6E6E6"/>
<path d="M323 50.3157V52.0558H319.966V55.1202H318.164V52.0558H315.115V50.3157H318.164V47.2358H319.966V50.3157H323Z" fill="#E6E6E6"/>
<path d="M276.802 50.3157V52.0558H273.769V55.1202H271.967V52.0558H268.918V50.3157H271.967V47.2358H273.769V50.3157H276.802Z" fill="#E6E6E6"/>
<path d="M230.605 50.3157V52.0558H227.571V55.1202H225.77V52.0558H222.721V50.3157H225.77V47.2358H227.571V50.3157H230.605Z" fill="#E6E6E6"/>
<path d="M184.408 50.3157V52.0558H181.374V55.1202H179.572V52.0558H176.523V50.3157H179.572V47.2358H181.374V50.3157H184.408Z" fill="#E6E6E6"/>
<path d="M138.211 50.3157V52.0558H135.177V55.1202H133.375V52.0558H130.326V50.3157H133.375V47.2358H135.177V50.3157H138.211Z" fill="#E6E6E6"/>
<path d="M92.0132 50.3157V52.0558H88.9797V55.1202H87.1779V52.0558H84.1289V50.3157H87.1779V47.2358H88.9797V50.3157H92.0132Z" fill="#E6E6E6"/>
<path d="M45.816 50.3157V52.0558H42.7824V55.1202H40.9806V52.0558H37.9316V50.3157H40.9806V47.2358H42.7824V50.3157H45.816Z" fill="#E6E6E6"/>
<path d="M323 4.11839V5.85849H319.966V8.92291H318.164V5.85849H315.115V4.11839H318.164V1.03857H319.966V4.11839H323Z" fill="#E6E6E6"/>
<path d="M276.802 4.11839V5.85849H273.769V8.92291H271.967V5.85849H268.918V4.11839H271.967V1.03857H273.769V4.11839H276.802Z" fill="#E6E6E6"/>
<path d="M230.605 4.11839V5.85849H227.571V8.92291H225.77V5.85849H222.721V4.11839H225.77V1.03857H227.571V4.11839H230.605Z" fill="#E6E6E6"/>
<path d="M184.408 4.11839V5.85849H181.374V8.92291H179.572V5.85849H176.523V4.11839H179.572V1.03857H181.374V4.11839H184.408Z" fill="#E6E6E6"/>
<path d="M138.211 4.11839V5.85849H135.177V8.92291H133.375V5.85849H130.326V4.11839H133.375V1.03857H135.177V4.11839H138.211Z" fill="#E6E6E6"/>
<path d="M92.0132 4.11839V5.85849H88.9797V8.92291H87.1779V5.85849H84.1289V4.11839H87.1779V1.03857H88.9797V4.11839H92.0132Z" fill="#E6E6E6"/>
<path d="M45.816 4.11839V5.85849H42.7824V8.92291H40.9806V5.85849H37.9316V4.11839H40.9806V1.03857H42.7824V4.11839H45.816Z" fill="#E6E6E6"/>
</g>
<defs>
<clipPath id="clip0_4428_173314">
<rect width="323" height="421" fill="white" transform="translate(0 0.249512)"/>
</clipPath>
</defs>
</svg>
