<svg width="116" height="38" viewBox="0 0 116 38" fill="none" xmlns="http://www.w3.org/2000/svg">
<path d="M7.44942 6.18267H24.4234L12.9807 15.6979C12.7562 15.878 12.6205 16.147 12.6072 16.436C12.5939 16.725 12.705 17.0051 12.914 17.2052L16.022 20.2021C16.2154 20.3888 16.4667 20.4822 16.7201 20.4822C16.9424 20.4822 17.167 20.4088 17.3515 20.2599L41.0484 0.0978189L41.164 0H8.42985C7.96075 0 7.55836 0.317915 7.45165 0.775891L6.47345 4.9488C6.40231 5.24893 6.47345 5.56018 6.66464 5.80251C6.85583 6.04484 7.14262 6.18267 7.45165 6.18267" fill="#FD7222"/>
<path d="M46.691 10.0154C43.2717 10.0154 40.7528 10.5912 38.2651 11.9384C35.3438 13.5236 33.4519 16.0713 32.6382 19.5173L32.3359 20.8801C31.6356 23.7836 31.9357 26.1046 33.2296 27.7808C34.9526 30.0129 37.6582 30.9667 42.2779 30.9667C50.4415 30.9667 54.9568 27.9476 56.4863 21.4648L56.7887 20.1064C57.4712 17.2741 57.1599 14.9842 55.8594 13.299C54.1075 11.0291 51.2796 10.0176 46.691 10.0176M50.4837 19.8196L50.2547 20.7556C49.4544 23.8614 47.0845 25.3731 43.0049 25.3731C40.5639 25.3731 39.6613 24.844 38.9921 23.9903C38.4719 23.3256 38.3585 22.4007 38.6408 21.1646L38.872 20.1976C39.6968 16.9873 41.8533 15.6178 46.0796 15.6178C48.5962 15.6178 49.4811 16.1225 50.1591 16.9962C50.6727 17.6565 50.7772 18.5813 50.4837 19.8196Z" fill="#FD7222"/>
<path d="M75.5725 10.0154C72.1532 10.0154 69.6344 10.5912 67.1489 11.9384C64.2276 13.5236 62.3357 16.0713 61.522 19.5173L61.2196 20.8801C60.5193 23.7836 60.8195 26.1046 62.1134 27.7808C63.8363 30.0129 66.5419 30.9667 71.1617 30.9667C79.3275 30.9667 83.8405 27.9476 85.3701 21.4648L85.6724 20.1064C86.3549 17.2741 86.0437 14.9842 84.7431 13.299C82.9913 11.0291 80.1634 10.0176 75.5747 10.0176M79.3697 19.8196L79.1385 20.7556C78.3381 23.8614 75.9682 25.3731 71.8887 25.3731C69.4476 25.3731 68.545 24.844 67.8781 23.9903C67.3578 23.3256 67.2422 22.4007 67.5268 21.1646L67.758 20.1976C68.5828 16.9873 70.7371 15.6178 74.9656 15.6178C77.4822 15.6178 78.367 16.1225 79.0451 16.9962C79.5587 17.6565 79.6632 18.5813 79.3719 19.8196" fill="#FD7222"/>
<path d="M27.574 24.1614H2.0118C1.54716 24.1614 1.14476 24.4771 1.03583 24.9284L0.0287243 29.1458C-0.0446407 29.4459 0.0242771 29.7594 0.215471 30.0039C0.406665 30.2485 0.695679 30.3863 1.0047 30.3863H26.5691C27.0337 30.3863 27.4361 30.0706 27.5451 29.6193L28.5522 25.4019C28.6255 25.0996 28.5566 24.7883 28.3654 24.5438C28.1742 24.2992 27.8852 24.1592 27.5762 24.1592" fill="#FD7222"/>
<path d="M114.66 13.0367C113.115 11.0603 110.734 10.0132 106.799 10.0132C102.864 10.0132 100.557 10.7379 98.1155 12.5054L98.0999 11.4783C98.1221 11.0247 97.762 10.6446 97.3062 10.6401H97.2128H93.5068C93.0599 10.6401 92.6753 10.9447 92.5731 11.3782L86.5882 36.6069C86.5282 36.8559 86.5571 37.1249 86.6883 37.345C86.8661 37.6429 87.1774 37.8163 87.5153 37.8163H91.9461C92.393 37.8163 92.7776 37.5117 92.8821 37.0782L94.8607 28.6724C96.6637 30.2375 98.6246 30.9622 102.113 30.9622C109.816 30.9622 113.947 27.6964 115.407 21.258L115.656 20.0909C116.339 17.1274 116.003 14.753 114.663 13.0345M109.36 19.6974L109.125 20.6756C108.135 24.7551 104.022 25.3643 101.352 25.3643C96.8238 25.3643 96.5548 23.7413 96.348 22.4319L97.0239 19.4017C98.32 16.8495 100.87 15.6089 104.821 15.6089C107.275 15.6089 108.364 16.0803 109.076 17.0095C109.56 17.6454 109.654 18.5258 109.36 19.6974Z" fill="#FD7222"/>
</svg>
